# xmcd
#
# Track frame offsets: 
#        150
#        13170
#        26983
#        43211
#        59283
#        75776
#        92298
#        107465
#        131007
#        147312
#        169412
#        188602
#        204377
#        229617
#        247552
#        262604
#        280525
#        299688
#
# Disc length: 4250 seconds
#
# Revision: 0
# Processed by: cddbd v1.5.1PL0 Copyright (c) Steve Scherf et al.
# Submitted via: ExactAudioCopy v0.95a5
#
DISCID=e8109812
DTITLE=Various Artist - Sony-ATV Country Music [CD8: 1996-2001)
DYEAR=2003
DGENRE=Country
TTITLE0=Lonestar - No News
TTITLE1=Tracy Lawrence - Time Marches On
TTITLE2=Martina McBride - A Broken Wing
TTITLE3=Lee Ann Womak - You've Got To Talk To Me
TTITLE4=Mark Wills - Don't Laugh At Me
TTITLE5=Brooks and Dunn - How Long Gone
TTITLE6=SheDaisy - Little Goodbyes
TTITLE7=Martina McBride - Love's The Only House
TTITLE8=Sara Evans - No Place That Far
TTITLE9=Tim McGraw - Please Remember Me
TTITLE10=Faith Hill - The Secret Of Life
TTITLE11=Andy Griggs - You Won't Ever Be Lonely
TTITLE12=Sara Evans - Born To Fly
TTITLE13=Gary Allan - Lovin' You Against My Will
TTITLE14=Brooks and Dunn - Ain't Nothing 'Bout You
TTITLE15=Tim McGraw - Grown Men Don't Cry
TTITLE16=Lonestar - I'm Already There
TTITLE17=Jessica Andrews - Who I Am
EXTD=
EXTT0=
EXTT1=
EXTT2=
EXTT3=
EXTT4=
EXTT5=
EXTT6=
EXTT7=
EXTT8=
EXTT9=
EXTT10=
EXTT11=
EXTT12=
EXTT13=
EXTT14=
EXTT15=
EXTT16=
EXTT17=
PLAYORDER=
